PathFileType	4	(X/Y/Z)	c:/Users/goper/Files/vsCode/490R/osim_files/C06/C06_SSWS_06.trc
DataRate	CameraRate	NumFrames	NumMarkers	Units                	OrigDataRate	OrigDataStartFrame	OrigNumFrames
250.00	250.00	6	36	mm	250.0	1946	3112
                Frame#	Time	LPSIS			LASIS			LTH1			LTH2			LTH3			LTH4			LLFE			LMFE			LSH1			LSH2			LSH3			LSH4			LLMAL			LMMAL			LCAL			LMTP5			LTOE			LMTP1			RPSIS			RASIS			RTH1			RTH2			RTH3			RTH4			RLFE			RMFE			RSH1			RSH2			RSH3			RSH4			RLMAL			RMMAL			RCAL			RMTP1			RTOE			RMTP5		
		X1	Y1	Z1	X2	Y2	Z2	X3	Y3	Z3	X4	Y4	Z4	X5	Y5	Z5	X6	Y6	Z6	X7	Y7	Z7	X8	Y8	Z8	X9	Y9	Z9	X10	Y10	Z10	X11	Y11	Z11	X12	Y12	Z12	X13	Y13	Z13	X14	Y14	Z14	X15	Y15	Z15	X16	Y16	Z16	X17	Y17	Z17	X18	Y18	Z18	X19	Y19	Z19	X20	Y20	Z20	X21	Y21	Z21	X22	Y22	Z22	X23	Y23	Z23	X24	Y24	Z24	X25	Y25	Z25	X26	Y26	Z26	X27	Y27	Z27	X28	Y28	Z28	X29	Y29	Z29	X30	Y30	Z30	X31	Y31	Z31	X32	Y32	Z32	X33	Y33	Z33	X34	Y34	Z34	X35	Y35	Z35	X36	Y36	Z36

1946	7.78000	-2413.13037	969.39423	153.98441	-2597.07935	963.40625	237.80031	-2593.66406	753.25830	316.31808	-2625.55737	698.93793	315.76459	-2657.73608	784.30554	289.70438	-2680.47852	726.78845	291.87619	-2755.73267	488.01147	256.22211	-2754.23193	468.81085	138.79645	-2740.63135	365.14951	271.21783	-2765.17578	328.56409	270.04678	-2798.97729	394.72183	271.58731	-2814.00586	351.96240	270.39462	-2891.01367	116.94863	221.64746	-2890.76294	143.95503	148.88197	-2845.79565	68.35725	173.71747	-3016.83423	112.88805	247.46806	-3051.18188	164.40468	186.26100	-3035.49023	138.11908	136.65233	-2407.26807	974.95447	88.28796	-2585.94409	954.17133	-2.00606	-2463.82202	770.12799	-75.04060	-2459.73804	706.72009	-64.37619	-2539.48022	760.69672	-63.27607	-2526.34766	699.56543	-57.16583	-2394.12280	451.84457	-1.51169	-2416.98560	462.28918	100.62715	-2313.56250	396.42581	-15.62811	-2299.91455	350.16907	-13.67247	-2369.39111	372.26700	-9.95188	-2348.97192	330.49921	-8.32114	-2246.48608	105.80590	45.77100	-2265.06812	129.30338	120.65331	-2170.75586	80.59875	89.96295	-2373.71680	36.88869	127.78622	-2396.65039	53.54174	82.21184	-2347.88110	35.95638	14.94273
1947	7.78400	-2417.92017	968.25653	154.38103	-2602.23071	962.06512	237.93842	-2598.73413	751.87555	316.36963	-2630.90625	697.69049	315.69421	-2662.80835	783.21619	290.05655	-2685.95947	725.63110	292.43127	-2761.66602	487.38614	255.76390	-2759.76904	468.03610	138.43921	-2747.69458	364.54575	271.19049	-2772.50391	328.12659	269.93173	-2805.70557	394.43765	271.27676	-2821.02490	351.84705	269.96988	-2899.45654	117.18217	221.20552	-2898.36890	143.93999	148.36722	-2855.12866	67.35487	173.96652	-3025.48853	114.76382	244.50319	-3058.83667	166.05188	184.49466	-3043.19263	139.33231	135.07961	-2412.24976	973.93951	88.58014	-2590.88843	952.94727	-1.91658	-2468.06689	769.41144	-74.84277	-2463.67798	706.04059	-64.33788	-2543.66016	759.71979	-63.28157	-2530.33911	698.61005	-57.18219	-2395.77588	451.44507	-1.47754	-2419.98315	461.75363	100.65311	-2315.98560	396.61523	-15.44472	-2302.43335	350.26932	-13.43192	-2371.63379	372.02603	-9.86587	-2350.87744	330.50296	-8.23962	-2246.86963	106.38834	45.84523	-2265.65552	129.83891	120.70564	-2171.04443	81.41164	90.04303	-2373.75464	36.87237	127.83533	-2396.83862	53.51614	82.14773	-2347.91626	35.98624	15.00367
1948	7.78800	-2424.81152	966.70178	155.10945	-2607.58105	960.84943	238.06512	-2603.78809	750.47705	316.39142	-2636.19556	696.35693	315.57904	-2668.28979	782.08307	290.82181	-2691.04688	725.31891	292.24969	-2767.69800	486.69397	255.41872	-2765.38940	467.22266	138.15370	-2754.43896	364.00046	271.19733	-2779.29883	327.62854	269.78629	-2812.15332	394.18616	270.62552	-2827.93750	351.65735	269.55106	-2907.38452	117.46162	220.65388	-2905.63965	143.87840	147.82600	-2863.03931	67.36147	173.68446	-3033.51123	116.09467	243.28551	-3066.14380	167.30719	182.85114	-3050.58691	140.19194	133.71611	-2417.65161	972.70123	88.78367	-2595.96118	951.80585	-1.77290	-2472.28174	768.70813	-74.64121	-2467.80103	705.41223	-64.29981	-2547.96387	758.69025	-63.18580	-2534.43677	697.66174	-57.20707	-2398.30688	451.24051	-1.41933	-2423.17090	461.21234	100.74027	-2318.65405	396.73114	-15.26432	-2302.42358	350.96799	-13.76012	-2374.23047	371.91025	-9.88900	-2352.80591	330.75073	-8.40186	-2247.28149	107.01488	45.94153	-2266.36206	130.31853	120.78746	-2171.42017	82.23978	90.05665	-2373.81177	36.86600	127.89547	-2396.96924	53.45597	82.08685	-2347.94800	36.01937	15.01385
1949	7.79200	-2430.05859	965.67542	155.42471	-2612.87866	959.56812	238.14331	-2609.09937	749.17535	316.46832	-2641.50171	695.10126	315.42535	-2673.24097	781.18945	290.78424	-2696.45801	724.38208	292.31201	-2774.18408	485.97101	255.22603	-2771.06470	466.46420	137.87691	-2761.32520	363.40570	271.12592	-2786.50317	327.27356	269.95126	-2818.97021	393.71133	270.51736	-2834.73438	351.37061	269.13577	-2914.79028	116.79893	220.26672	-2912.70679	143.68161	147.26283	-2870.51978	66.92690	173.55705	-3040.94141	116.97334	241.98973	-3073.11572	168.25742	181.30582	-3057.28760	140.86026	132.37347	-2422.27075	971.90265	89.27328	-2601.16943	950.67139	-1.69593	-2476.48730	767.99512	-74.47736	-2471.68140	704.56567	-63.88699	-2552.25244	757.65680	-63.13494	-2538.62158	696.72394	-57.21677	-2401.18115	450.89233	-1.25690	-2426.48364	460.64746	100.79348	-2321.15381	397.01395	-15.08420	-2307.94116	350.56543	-13.02898	-2376.54639	371.75250	-9.79196	-2354.69458	331.68619	-9.48224	-2247.70850	107.74702	45.96541	-2267.02515	130.86523	120.86124	-2171.78906	83.16074	90.03777	-2373.79224	36.44895	128.32286	-2397.15918	53.38794	82.11294	-2348.01465	36.04036	15.04381
1950	7.79600	-2435.19824	964.72437	155.78011	-2618.26416	958.30194	238.19044	-2614.56445	747.96783	316.46567	-2646.93579	693.94122	315.19025	-2678.53687	780.20966	291.10999	-2701.61816	723.52075	291.91565	-2780.37573	485.39417	254.86076	-2776.71753	465.88171	137.71800	-2767.99780	362.75714	271.08600	-2793.03809	326.59509	269.65118	-2825.58545	393.25925	270.09821	-2841.45654	350.95312	268.65347	-2921.97046	117.08210	219.54605	-2919.18530	143.20184	146.78369	-2877.40625	66.34486	173.19855	-3048.32007	117.46390	240.81311	-3079.68311	168.75615	179.81447	-3063.83545	141.15466	131.05894	-2427.31836	970.91901	89.58556	-2606.24536	949.41370	-1.65526	-2480.34277	767.22803	-74.31986	-2475.63916	703.74054	-63.45268	-2556.70435	756.64703	-63.06762	-2542.80493	695.56750	-57.03251	-2404.17114	450.50244	-1.15373	-2429.77197	460.13330	100.86891	-2323.79224	397.18048	-14.94852	-2309.68433	350.69397	-12.81342	-2378.81738	371.43408	-9.58322	-2356.74292	332.45523	-10.63436	-2248.24976	108.39660	45.93949	-2267.71460	131.46111	120.89412	-2172.15894	84.12608	90.01734	-2373.98804	36.83340	128.00856	-2397.28540	53.30672	82.07172	-2348.08057	36.09486	15.05030
1951	7.80000	-2438.84570	964.20074	155.72733	-2623.79053	957.21692	238.26860	-2619.97681	746.73413	316.45755	-2652.48779	692.15454	315.00455	-2683.98560	779.29047	291.47980	-2707.09106	722.59686	291.96512	-2786.27979	484.81885	254.34801	-2782.52539	464.91922	137.27228	-2774.61401	362.26059	271.10480	-2799.70459	326.01138	269.50400	-2832.11548	392.75302	269.76385	-2848.02026	350.47357	268.32178	-2928.61768	116.68919	219.00180	-2925.42700	142.71269	146.19678	-2883.95215	65.71680	172.82472	-3055.10132	117.46200	241.28989	-3085.95874	168.99545	178.47804	-3070.04102	141.17993	129.83575	-2432.46655	969.99683	89.82270	-2611.36768	948.25934	-1.63845	-2485.82446	766.27063	-74.13187	-2479.78149	703.00934	-63.10111	-2560.65649	755.57782	-63.11944	-2547.02197	694.54987	-56.97921	-2407.34497	450.08157	-1.00573	-2433.30225	459.46942	100.88487	-2326.57129	397.43564	-14.82105	-2311.65308	351.51685	-12.76199	-2381.38306	371.15799	-9.43571	-2358.94043	332.80911	-11.15598	-2248.76392	109.13879	45.93584	-2268.49170	131.99004	120.90316	-2172.56323	85.19621	89.93784	-2374.05469	36.83569	128.08258	-2397.41919	53.18989	82.04802	-2348.14990	36.12498	15.06404
